<svg id="contour-dessine-main-boite-cadeau" xmlns="http://www.w3.org/2000/svg" width="58.751" height="60.729" viewBox="0 0 58.751 60.729">
  <g id="gagnotte" transform="translate(0)">
    <path id="Tracé_43" data-name="Tracé 43" d="M65.155,26.434a1.254,1.254,0,0,0,1.173-1.213,1.767,1.767,0,0,0,.018-.352A65.129,65.129,0,0,0,64.5,12.592c-.006-.021-.015-.037-.02-.057a1.379,1.379,0,0,0-1.545-1.3c-4.722.33-9.9.621-15.262.887A17.19,17.19,0,0,0,52.6,7.8c1.522-1.982,3.884-6.274.171-7.523C49.705-.755,45.858,1.365,43.349,2.9a21.735,21.735,0,0,0-6.983,6.677,14.912,14.912,0,0,0-6.709-5.517c-2.918-1.2-6.643-1.787-9.547-.226-2.787,1.5-2.073,4.594-.312,6.561a13.584,13.584,0,0,0,3.721,2.8c-4.84.208-9.513.416-13.805.634a1.57,1.57,0,0,0-1.456,1.076,1.46,1.46,0,0,0-.329,1.033q.238,5.68.487,11.359a1.578,1.578,0,0,0,1.331,1.528,1.664,1.664,0,0,0,.778.257c.552.042,1.119.075,1.682.11,1.96,9.932,4.706,19.729,4.972,29.909a1.527,1.527,0,0,0,1.089,1.476,1.639,1.639,0,0,0,.7.147c15.387.037,30.259-1.729,45.381-3.952a1.576,1.576,0,0,0,.553-.19,1.43,1.43,0,0,0,1.774-1.537c-.7-8.642-2.206-19.777-3.5-28.342C63.837,26.619,64.5,26.527,65.155,26.434ZM50.885,3.3a2.822,2.822,0,0,1,.641.012c-.1,1.177-1.6,2.679-2.266,3.467-2.738,3.227-6.882,4.464-10.839,5.661C40.673,8.014,46.05,3.763,50.885,3.3ZM21.449,7.155c-.1-.293.013-.437.56-.655,4.577-1.821,9.775,1.716,12.2,5.685-3.642-.736-7.235-.53-10.491-2.708A5.636,5.636,0,0,1,21.449,7.155ZM11.6,25.913q-.194-4.454-.382-8.909c7.541-.378,16.384-.73,25.223-1.115a1.432,1.432,0,0,0,1.288.159l.8-.251c8.127-.36,16.164-.752,23.1-1.227a60.635,60.635,0,0,1,1.389,8.911C47.716,25.625,27.04,26.978,11.6,25.913Zm26.11,3.2c2.887-.158,5.769-.36,8.616-.593a1.761,1.761,0,0,0,.209.253,64.784,64.784,0,0,0,5.579,4.856H49.632a1.554,1.554,0,0,0-.925.28,1.556,1.556,0,0,0-1.127,1.073c-.413,1.26-.754,2.535-1.039,3.824a40.119,40.119,0,0,1-8.952-8.217c.046-.3.1-.606.139-.91A1.749,1.749,0,0,0,37.711,29.115Zm-3.182.155a89.778,89.778,0,0,1-2.287,10.753c-.942-1.23-1.894-2.452-2.883-3.645a1.334,1.334,0,0,0-1.922-.247q-1.7.706-3.436,1.326a40.066,40.066,0,0,0,1.1-7.935C28.2,29.5,31.355,29.409,34.529,29.271ZM63.3,53.677a323.176,323.176,0,0,1-42.942,3.787c-.483-9.532-2.924-18.764-4.812-28.092q3.081.125,6.31.149a37.753,37.753,0,0,1-1.682,9.627,1.628,1.628,0,0,0,1.818,2.376,59.6,59.6,0,0,0,5.729-2.03c1.244,1.538,2.448,3.108,3.635,4.692.041.055.088.1.133.155a1.678,1.678,0,0,0,2.995-.38c.933-3.055,1.735-6.133,2.372-9.249a43.158,43.158,0,0,0,9.686,7.948,1.6,1.6,0,0,0,.717.236,1.369,1.369,0,0,0,1.992-1.043,38.776,38.776,0,0,1,1.145-4.975h6.377a1.579,1.579,0,0,0,1.523-2.015,1.617,1.617,0,0,0-.7-1.171,73.065,73.065,0,0,1-6.985-5.546c3.212-.3,6.352-.648,9.362-1.02C61.169,35.1,62.568,45.642,63.3,53.677Z" transform="translate(-7.926 -0.002)" fill="#3e3e3e"/>
  </g>
</svg>
