<svg id="gratuit" xmlns="http://www.w3.org/2000/svg" width="57.421" height="54.422" viewBox="0 0 57.421 54.422">
  <g id="gratuit-2" data-name="gratuit" transform="translate(0 0)">
    <path id="Tracé_22" data-name="Tracé 22" d="M44.479,13.629c-.483,0-.973.022-1.454.065-4.973.45-9.507,3.47-12.81,8.52-3.832-5.652-10.166-9.281-16.258-9.281a15.25,15.25,0,0,0-3.942.515,13.356,13.356,0,0,0-8.825,8.06,15.828,15.828,0,0,0,.828,13.773c3.232,5.48,8.773,8.825,14.132,12.059a72.83,72.83,0,0,1,8.04,5.347,24.381,24.381,0,0,1,2.424,2.18,33.094,33.094,0,0,0-2.963,4.252c-.614,1.292-1.458,4.025-.725,6.069A3.172,3.172,0,0,0,24.6,67.066a3.01,3.01,0,0,0,1.281.289c1.892,0,3.645-1.793,4.783-3.3a7.679,7.679,0,0,0,.925-8.593c2.518-2.278,5.258-4.4,7.908-6.444,4.56-3.524,9.275-7.169,13.027-11.751,1.833-2.239,7.5-10.112,3.494-17.447C53.9,15.944,49.588,13.629,44.479,13.629ZM28.089,61a5.2,5.2,0,0,1-1.166,1.589,8.456,8.456,0,0,1,.757-2.717c.074-.163.561-.916.911-1.419A4.211,4.211,0,0,1,28.089,61ZM23.532,20.469a18.2,18.2,0,0,1,3.084,3.245c.1.141.263.408.449.716,1.071,1.785,2.222,3.527,3.468,3.527.618,0,1.142-.435,1.556-1.293,2.643-5.473,6.86-8.736,11.875-9.189.291-.027.587-.039.879-.039a8.769,8.769,0,0,1,8.4,5.587c1.562,4.406-.91,9.626-7.558,15.96A114.745,114.745,0,0,1,36.6,46.515c-2.4,1.856-4.885,3.774-7.209,5.817a37.3,37.3,0,0,0-7.008-5.7c-1.291-.857-2.686-1.7-4.163-2.584-7.261-4.364-15.49-9.31-14.193-18.52a9.658,9.658,0,0,1,9.985-8.669c.391,0,.792.019,1.191.057A15.637,15.637,0,0,1,23.532,20.469Z" transform="translate(-0.001 -12.933)" fill="#3e3e3e"/>
  </g>
</svg>
