<svg id="multi-enseignes" xmlns="http://www.w3.org/2000/svg" width="71.525" height="58.166" viewBox="0 0 71.525 58.166">
  <g id="multi-enseignes-2" data-name="multi-enseignes" transform="translate(0 0)">
    <path id="Tracé_42" data-name="Tracé 42" d="M69.447,83.208c-15.608,1.664-31.375,4.2-47.071,2.238a2.75,2.75,0,0,0-.286-.132,2.59,2.59,0,0,1-1.9-2.757c1.335-1.909,4.188-1.785,6.186-1.63,2.8.215,5.572.189,8.376.16a186.126,186.126,0,0,0,21.8-1.5c4-.516,7.984-1.091,11.954-1.812a1.8,1.8,0,0,0,1.545-2.137,2.379,2.379,0,0,0,.049-.392c.219-8.486.479-16.963,1.3-25.415a1.8,1.8,0,0,0-1.8-2.069,2.153,2.153,0,0,0-.809-.1c-18.32,1.063-36.668,1.3-55.013,1.515a2.5,2.5,0,0,0-.369-.351A32.1,32.1,0,0,0,2.686,43.388c-2.7-.783-3.841,3.41-1.156,4.189,10.092,2.931,14.625,11.654,16.557,21.39a75.057,75.057,0,0,1,1.1,8.856c.015.184-2.532,2.173-2.813,2.681a5.1,5.1,0,0,0-.433,3.675c.889,3.732,3.937,5.272,7.447,5.887a9.749,9.749,0,0,0-1.469,2.845,2.051,2.051,0,0,0-.074,1.07,7.3,7.3,0,0,0,2.045,5.388,8.738,8.738,0,0,0,5.772,2.085,2.249,2.249,0,0,0,.645-.063c.074-.005.145,0,.222-.013a7.965,7.965,0,0,0,6.9-7.254,5.889,5.889,0,0,0-.919-3.736c5.943-.1,11.787-.6,17.706-1.183a7.812,7.812,0,0,0-1.29,2.438c-1.5,4.852,3.219,8.268,7.728,8.51a2.25,2.25,0,0,0,.645-.063c.074-.005.145,0,.222-.013a7.966,7.966,0,0,0,6.9-7.254,6.126,6.126,0,0,0-1.891-4.942c.975-.11,1.949-.222,2.925-.326C72.2,87.259,72.232,82.911,69.447,83.208Zm-3.654-9.365q-5.235.907-10.5,1.532c-.018-1.632-.042-3.264-.089-4.894,3.562-.048,7.126-.061,10.688-.021C65.861,71.587,65.823,72.714,65.794,73.843Zm.252-7.727c-3.673-.043-7.342-.023-11.009.034-.059-1.289-.132-2.576-.211-3.863,3.793-.062,7.584-.1,11.378-.08C66.142,63.51,66.1,64.813,66.045,66.116ZM66.854,52.1c-.164,1.918-.3,3.839-.418,5.76-3.964-.027-7.929.018-11.892.085q-.2-2.637-.459-5.27C58.342,52.518,62.6,52.336,66.854,52.1ZM50.958,75.84q-6.108.593-12.243.819-.377-2.755-.764-5.509c4.3-.3,8.6-.481,12.914-.592C50.918,72.316,50.942,74.078,50.958,75.84Zm-.263-9.6c-4.447.124-8.889.327-13.326.645q-.282-2.1-.543-4.2c4.553-.1,9.106-.221,13.661-.318C50.564,63.652,50.636,64.944,50.7,66.236Zm-.943-13.406q.249,2.6.452,5.195c-4.632.1-9.265.224-13.9.326-.19-1.717-.371-3.435-.52-5.158Q42.771,53.053,49.752,52.829Zm-15.37,23.94q-5.471.076-10.952-.147-.173-1.989-.424-3.97,5.31-.719,10.64-1.174Q34.015,74.123,34.382,76.769Zm-1.321-9.553q-5.37.473-10.725,1.182A53.231,53.231,0,0,0,21,62.868c3.826.013,7.65-.03,11.474-.1Q32.758,64.994,33.061,67.216ZM16.764,53.48q7.344-.089,14.686-.21.226,2.588.518,5.166c-4.179.073-8.359.115-12.54.084A33.9,33.9,0,0,0,16.764,53.48ZM29.71,97.118c-.018,0-.034-.007-.051-.008-2.4-.129-3.49-.942-3.472-3.237A4.168,4.168,0,0,1,30.1,91.044c1.641.368,3.009,1.189,2.978,3.08C33.049,95.93,31.24,96.8,29.71,97.118Zm30.991-1.3c-.018,0-.034-.007-.051-.008-2.4-.129-3.491-.943-3.472-3.238a4.167,4.167,0,0,1,3.915-2.829c1.641.368,3.01,1.189,2.978,3.08C64.039,94.626,62.231,95.495,60.7,95.815Z" transform="translate(0 -43.291)" fill="#3e3e3e"/>
  </g>
</svg>
