<svg id="personnalisable" xmlns="http://www.w3.org/2000/svg" width="54.644" height="53.302" viewBox="0 0 54.644 53.302">
  <g id="Groupe_33" data-name="Groupe 33" transform="translate(0 0)">
    <path id="Tracé_28" data-name="Tracé 28" d="M39.53,32.644c-.873.967-1.773,1.89-2.694,2.78.127,3.7.225,7.176.246,10.125a14.4,14.4,0,0,0-5.338-.65,1.478,1.478,0,0,0-.391.083,1.238,1.238,0,0,0-1.285,1.68c.76,2.04,1.108,4.574-.061,6.526-1.414,2.361-3.937,2.3-6.334,2.6-1.467.184-3.026.086-4.5.129-1.15.032-15.721.387-15.721.444-.034-13.808-.491-33.88-.676-47.685,11.1.048,22.191.429,33.288.192,0,.9,0,1.858.013,2.85q1.363-1.467,2.741-2.907c0-.28,0-.561,0-.841a1.5,1.5,0,0,0-.057-.412,1.288,1.288,0,0,0-1.323-1.5C25.417,6.372,13.4,5.9,1.381,5.882A1.343,1.343,0,0,0,.066,7.53,1.459,1.459,0,0,0,0,7.972c.182,14.342.674,34.95.69,49.3a1.338,1.338,0,0,0,.237.789,1.244,1.244,0,0,0,1.315,1.126c5.2-.129,10.392-.213,15.584-.467,4.626-.227,10.392.077,14.814-1.433a11.142,11.142,0,0,0,4.168-2.47c2.195-2.092,2.944-4.9,3.133-7.861.182-2.843-.153-5.824-.22-8.443C39.673,36.553,39.6,34.6,39.53,32.644ZM32.436,54.42a9.093,9.093,0,0,0,.813-6.755,11.088,11.088,0,0,1,3.919.842c.005.016.009.033.014.048A7.258,7.258,0,0,1,32.436,54.42Z" transform="translate(0 -5.882)" fill="#3e3e3e"/>
    <path id="Tracé_29" data-name="Tracé 29" d="M151.379,9.725a1.126,1.126,0,0,0-.2-.185,1.063,1.063,0,0,0-1.347-.2c-.818.56-1.684,1.169-2.522,1.852l-.038-.05a.913.913,0,0,0-.164-.173,1.3,1.3,0,0,0-.428-.349.918.918,0,0,0-1.039.087c-.747.636-1.9,1.653-3.313,2.9-.829.735-1.742,1.547-2.718,2.418-1.416,1.264-2.954,2.642-4.526,4.05l-2.45,2.2c-5.364,4.809-10.909,9.782-13.067,11.619a.9.9,0,0,0-.148.162.89.89,0,0,0-.378.5.985.985,0,0,0-.2.392,85.1,85.1,0,0,0-1.977,9.367,1.4,1.4,0,0,0,.782,1.428,1.173,1.173,0,0,0,.24.1,47.823,47.823,0,0,0,10.237,1.749l.067,0a.8.8,0,0,0,.491-.154.983.983,0,0,0,.185-.131c1.474-1.341,4.629-4.128,8.283-7.356l.643-.568,2.518-2.226,2.7-2.394c.927-.821,1.843-1.635,2.739-2.431,3.946-3.509,7.432-6.643,9.025-8.183a.964.964,0,0,0,.721-.513,1.231,1.231,0,0,0-.1-1.272l-.093-.139c.766-.821,1.588-1.556,2.367-2.241a.948.948,0,0,0,.166-.193,1.172,1.172,0,0,0,.076-1.519A87.178,87.178,0,0,0,151.379,9.725Zm4.33,8.9c-.542.485-1.143,1.04-1.719,1.643-1.769-2.569-3.638-5.07-5.267-7.213.5-.406,1.052-.824,1.717-1.293C152.289,13.931,154.06,16.238,155.709,18.622Zm-21.125,5.04.085-.076c1.737-1.556,3.439-3.08,5.007-4.482.953-.852,1.857-1.66,2.687-2.4,1.346-1.2,2.493-2.217,3.356-2.973l.584-.51q.417.548.832,1.1l-.542.481L142.4,18.518l-2.674,2.368c-1.478,1.308-3.031,2.681-4.539,4.014-3.957,3.5-7.6,6.7-8.708,7.643a1.006,1.006,0,0,0-.26,1.158,1.311,1.311,0,0,0,1.124.894.882.882,0,0,0,.577-.219c1.319-1.12,6.175-5.4,10.9-9.582l1-.884,2.669-2.363c1.476-1.308,2.828-2.506,3.918-3.472l2.132-1.892q.434.579.865,1.158c-.566.519-1.565,1.4-3.254,2.864-.96.829-2.14,1.844-3.595,3.086q-1.206,1.031-2.676,2.28c-1.172,1-2.475,2.1-3.923,3.326-2.679,2.267-5.847,4.94-9.607,8.1l-.32.269a1,1,0,0,0-.263,1.154,1.312,1.312,0,0,0,1.128.9.888.888,0,0,0,.575-.216l.272-.229c3.658-3.078,6.758-5.693,9.393-7.922q1.53-1.294,2.854-2.418,1.456-1.235,2.679-2.277l1.386-1.182c3.889-3.321,5.823-5.016,6.731-5.844.15.207.3.416.45.625-1.347,1.2-3.374,2.989-5.634,4.979-.932.822-1.905,1.677-2.886,2.538-.9.785-1.8,1.574-2.681,2.347-1.109.968-2.189,1.909-3.2,2.784-2.7,2.343-4.89,4.2-5.656,4.767a.939.939,0,0,0-.313,1.1,1.352,1.352,0,0,0,1.175.946.916.916,0,0,0,.548-.184c.748-.554,2.831-2.321,5.406-4.55.687-.6,1.41-1.222,2.153-1.869.878-.766,1.784-1.557,2.692-2.351,2.1-1.841,4.21-3.7,5.994-5.27,1.577-1.391,2.9-2.564,3.745-3.313q.262.383.522.768c-.859.822-2.247,2.093-3.95,3.628-1.811,1.633-3.982,3.568-6.254,5.583-.889.788-1.791,1.588-2.7,2.388l-3,2.655-1.72,1.521c-3.162,2.794-5.915,5.227-7.336,6.507a60.347,60.347,0,0,1-6.693-9.48C123.686,33.421,129.214,28.471,134.584,23.662Zm-8.831,21.49c-1.027-.115-2.093-.275-3.179-.477-.017-.035-.037-.07-.058-.105-.777-1.261-1.684-2.575-2.77-4.013.2-.959.429-1.935.681-2.958A63.03,63.03,0,0,0,125.753,45.151Zm-5.969-1.082q-.336-.083-.673-.169.053-.32.11-.637C119.414,43.535,119.6,43.8,119.783,44.07Zm8.408,3.229v-.007h0Z" transform="translate(-103.517 -8.806)" fill="#3e3e3e"/>
  </g>
</svg>
