<svg id="sans_limites" data-name="sans limites" xmlns="http://www.w3.org/2000/svg" width="75.765" height="28.998" viewBox="0 0 75.765 28.998">
  <g id="sans_limite" data-name="sans limite" transform="translate(0 0)">
    <path id="Tracé_36" data-name="Tracé 36" d="M64.761,173.471a14.838,14.838,0,0,0,9.7-7.933,11.521,11.521,0,0,0,.254-10.121c-3.471-7.329-11.793-10.609-18.5-10.609q-.509,0-1.014.025c-8.2.4-14.716,6.068-20.468,11.071L33.475,157c-3.679,3.176-14.132,10.137-21.224,10.139-3.5,0-5.495-1.679-6.276-5.288-.687-3.174,1.348-6.364,3.713-7.874,3.7-2.366,9.124-1.673,15.869,1.968a2.944,2.944,0,0,0,1.414.369,3.058,3.058,0,0,0,2.884-2.336,2.735,2.735,0,0,0-1.405-3.149c-2.7-1.458-8.095-3.906-13.856-3.906-5.679,0-10.106,2.433-12.8,7.034a12.507,12.507,0,0,0-.751,11.428,12.15,12.15,0,0,0,8.608,7.049,20.445,20.445,0,0,0,4.451.5c9.254,0,16.794-6.277,24.084-12.346A75.156,75.156,0,0,1,48.495,152.9a17.253,17.253,0,0,1,8.233-1.9c6.435,0,12.992,2.917,13.136,9.433a6.179,6.179,0,0,1-1.743,4.638,9.593,9.593,0,0,1-6.778,2.512,10.816,10.816,0,0,1-2.88-.378c-4.344-1.2-8.458-4.254-12.259-7.378a2.98,2.98,0,0,0-1.9-.7,3.167,3.167,0,0,0-2.942,2.056,2.621,2.621,0,0,0,.872,2.961c6.1,5.016,12.687,9.656,19.5,9.657A13.623,13.623,0,0,0,64.761,173.471Z" transform="translate(-0.001 -144.809)" fill="#3e3e3e"/>
  </g>
</svg>
